<svg xmlns="http://www.w3.org/2000/svg" xmlns:xlink="http://www.w3.org/1999/xlink" width="600" zoomAndPan="magnify" viewBox="0 0 450 449.999984" height="600" preserveAspectRatio="xMidYMid meet" version="1.0"><defs><g/><clipPath id="cb3f0a14c9"><path d="M 74.785156 19.230469 L 375.535156 19.230469 L 375.535156 319 L 74.785156 319 Z M 74.785156 19.230469 " clip-rule="nonzero"/></clipPath><clipPath id="871e9990b3"><path d="M 163 77 L 293 77 L 293 319.980469 L 163 319.980469 Z M 163 77 " clip-rule="nonzero"/></clipPath></defs><rect x="-45" width="540" fill="#ffffff" y="-44.999998" height="539.99998" fill-opacity="1"/><rect x="-45" width="540" fill="#ffffff" y="-44.999998" height="539.99998" fill-opacity="1"/><rect x="-45" width="540" fill="#ffffff" y="-44.999998" height="539.99998" fill-opacity="1"/><g clip-path="url(#cb3f0a14c9)"><path fill="#1877f2" d="M 375.535156 169.605469 C 375.535156 86.554688 308.210938 19.230469 225.160156 19.230469 C 142.109375 19.230469 74.785156 86.554688 74.785156 169.605469 C 74.785156 244.660156 129.773438 306.871094 201.664062 318.152344 L 201.664062 213.070312 L 163.480469 213.070312 L 163.480469 169.605469 L 201.664062 169.605469 L 201.664062 136.472656 C 201.664062 98.785156 224.113281 77.96875 258.460938 77.96875 C 274.914062 77.96875 292.125 80.90625 292.125 80.90625 L 292.125 117.914062 L 273.160156 117.914062 C 254.480469 117.914062 248.65625 129.503906 248.65625 141.394531 L 248.65625 169.605469 L 290.359375 169.605469 L 283.695312 213.070312 L 248.65625 213.070312 L 248.65625 318.152344 C 320.542969 306.871094 375.535156 244.660156 375.535156 169.605469 " fill-opacity="1" fill-rule="nonzero"/></g><g clip-path="url(#871e9990b3)"><path fill="#ffffff" d="M 283.695312 213.070312 L 290.359375 169.605469 L 248.65625 169.605469 L 248.65625 141.394531 C 248.65625 129.503906 254.480469 117.914062 273.160156 117.914062 L 292.125 117.914062 L 292.125 80.90625 C 292.125 80.90625 274.914062 77.96875 258.460938 77.96875 C 224.113281 77.96875 201.664062 98.785156 201.664062 136.472656 L 201.664062 169.605469 L 163.480469 169.605469 L 163.480469 213.070312 L 201.664062 213.070312 L 201.664062 318.152344 C 209.320312 319.351562 217.167969 319.980469 225.160156 319.980469 C 233.152344 319.980469 241 319.351562 248.65625 318.152344 L 248.65625 213.070312 L 283.695312 213.070312 " fill-opacity="1" fill-rule="nonzero"/></g><g fill="#00235c" fill-opacity="1"><g transform="translate(69.075016, 385.18125)"><g><path d="M 28.90625 -19.375 L 22.53125 -19.375 C 22.28125 -21.019531 21.578125 -22.3125 20.421875 -23.25 C 19.265625 -24.1875 17.828125 -24.65625 16.109375 -24.65625 C 13.796875 -24.65625 11.941406 -23.804688 10.546875 -22.109375 C 9.148438 -20.410156 8.453125 -18.007812 8.453125 -14.90625 C 8.453125 -11.726562 9.15625 -9.3125 10.5625 -7.65625 C 11.96875 -6 13.800781 -5.171875 16.0625 -5.171875 C 17.738281 -5.171875 19.160156 -5.609375 20.328125 -6.484375 C 21.492188 -7.359375 22.226562 -8.59375 22.53125 -10.1875 L 28.90625 -10.15625 C 28.675781 -8.332031 28.019531 -6.613281 26.9375 -5 C 25.863281 -3.394531 24.398438 -2.09375 22.546875 -1.09375 C 20.703125 -0.09375 18.503906 0.40625 15.953125 0.40625 C 13.296875 0.40625 10.921875 -0.191406 8.828125 -1.390625 C 6.734375 -2.597656 5.082031 -4.34375 3.875 -6.625 C 2.664062 -8.90625 2.0625 -11.664062 2.0625 -14.90625 C 2.0625 -18.15625 2.671875 -20.921875 3.890625 -23.203125 C 5.117188 -25.484375 6.78125 -27.222656 8.875 -28.421875 C 10.976562 -29.617188 13.335938 -30.21875 15.953125 -30.21875 C 18.253906 -30.21875 20.328125 -29.789062 22.171875 -28.9375 C 24.023438 -28.09375 25.539062 -26.863281 26.71875 -25.25 C 27.90625 -23.632812 28.632812 -21.675781 28.90625 -19.375 Z M 28.90625 -19.375 "/></g></g></g><g fill="#00235c" fill-opacity="1"><g transform="translate(99.906496, 385.18125)"><g><path d="M 12.578125 0.4375 C 10.316406 0.4375 8.363281 -0.0390625 6.71875 -1 C 5.070312 -1.96875 3.800781 -3.316406 2.90625 -5.046875 C 2.019531 -6.785156 1.578125 -8.800781 1.578125 -11.09375 C 1.578125 -13.40625 2.019531 -15.425781 2.90625 -17.15625 C 3.800781 -18.882812 5.070312 -20.234375 6.71875 -21.203125 C 8.363281 -22.171875 10.316406 -22.65625 12.578125 -22.65625 C 14.835938 -22.65625 16.789062 -22.171875 18.4375 -21.203125 C 20.082031 -20.234375 21.351562 -18.882812 22.25 -17.15625 C 23.144531 -15.425781 23.59375 -13.40625 23.59375 -11.09375 C 23.59375 -8.800781 23.144531 -6.785156 22.25 -5.046875 C 21.351562 -3.316406 20.082031 -1.96875 18.4375 -1 C 16.789062 -0.0390625 14.835938 0.4375 12.578125 0.4375 Z M 12.609375 -4.375 C 14.140625 -4.375 15.300781 -5.015625 16.09375 -6.296875 C 16.882812 -7.578125 17.28125 -9.191406 17.28125 -11.140625 C 17.28125 -13.085938 16.882812 -14.703125 16.09375 -15.984375 C 15.300781 -17.273438 14.140625 -17.921875 12.609375 -17.921875 C 11.046875 -17.921875 9.863281 -17.273438 9.0625 -15.984375 C 8.269531 -14.703125 7.875 -13.085938 7.875 -11.140625 C 7.875 -9.191406 8.269531 -7.578125 9.0625 -6.296875 C 9.863281 -5.015625 11.046875 -4.375 12.609375 -4.375 Z M 12.609375 -4.375 "/></g></g></g><g fill="#00235c" fill-opacity="1"><g transform="translate(125.060791, 385.18125)"><g><path d="M 10.71875 0.359375 C 9.019531 0.359375 7.484375 -0.078125 6.109375 -0.953125 C 4.742188 -1.828125 3.65625 -3.117188 2.84375 -4.828125 C 2.039062 -6.546875 1.640625 -8.65625 1.640625 -11.15625 C 1.640625 -13.71875 2.054688 -15.847656 2.890625 -17.546875 C 3.722656 -19.253906 4.820312 -20.53125 6.1875 -21.375 C 7.5625 -22.226562 9.066406 -22.65625 10.703125 -22.65625 C 11.953125 -22.65625 12.992188 -22.441406 13.828125 -22.015625 C 14.671875 -21.597656 15.351562 -21.078125 15.875 -20.453125 C 16.394531 -19.835938 16.789062 -19.222656 17.0625 -18.609375 L 17.25 -18.609375 L 17.25 -29.8125 L 23.4375 -29.8125 L 23.4375 0 L 17.328125 0 L 17.328125 -3.578125 L 17.0625 -3.578125 C 16.78125 -2.960938 16.375 -2.347656 15.84375 -1.734375 C 15.3125 -1.128906 14.625 -0.628906 13.78125 -0.234375 C 12.9375 0.160156 11.914062 0.359375 10.71875 0.359375 Z M 12.6875 -4.578125 C 14.175781 -4.578125 15.332031 -5.179688 16.15625 -6.390625 C 16.976562 -7.597656 17.390625 -9.195312 17.390625 -11.1875 C 17.390625 -13.1875 16.976562 -14.773438 16.15625 -15.953125 C 15.34375 -17.128906 14.1875 -17.71875 12.6875 -17.71875 C 11.144531 -17.71875 9.972656 -17.113281 9.171875 -15.90625 C 8.378906 -14.695312 7.984375 -13.125 7.984375 -11.1875 C 7.984375 -9.226562 8.382812 -7.632812 9.1875 -6.40625 C 9.988281 -5.1875 11.15625 -4.578125 12.6875 -4.578125 Z M 12.6875 -4.578125 "/></g></g></g><g fill="#00235c" fill-opacity="1"><g transform="translate(151.103056, 385.18125)"><g><path d="M 12.671875 0.4375 C 10.378906 0.4375 8.398438 -0.03125 6.734375 -0.96875 C 5.078125 -1.90625 3.800781 -3.234375 2.90625 -4.953125 C 2.019531 -6.679688 1.578125 -8.722656 1.578125 -11.078125 C 1.578125 -13.378906 2.019531 -15.398438 2.90625 -17.140625 C 3.800781 -18.878906 5.0625 -20.234375 6.6875 -21.203125 C 8.3125 -22.171875 10.222656 -22.65625 12.421875 -22.65625 C 14.390625 -22.65625 16.164062 -22.238281 17.75 -21.40625 C 19.34375 -20.570312 20.601562 -19.3125 21.53125 -17.625 C 22.46875 -15.9375 22.9375 -13.828125 22.9375 -11.296875 L 22.9375 -9.59375 L 7.703125 -9.59375 L 7.703125 -9.578125 C 7.703125 -7.910156 8.15625 -6.59375 9.0625 -5.625 C 9.976562 -4.664062 11.210938 -4.1875 12.765625 -4.1875 C 13.804688 -4.1875 14.703125 -4.40625 15.453125 -4.84375 C 16.210938 -5.28125 16.75 -5.925781 17.0625 -6.78125 L 22.796875 -6.40625 C 22.359375 -4.332031 21.25 -2.671875 19.46875 -1.421875 C 17.695312 -0.179688 15.429688 0.4375 12.671875 0.4375 Z M 7.703125 -13.4375 L 17.09375 -13.4375 C 17.082031 -14.769531 16.65625 -15.867188 15.8125 -16.734375 C 14.96875 -17.597656 13.867188 -18.03125 12.515625 -18.03125 C 11.140625 -18.03125 10.007812 -17.582031 9.125 -16.6875 C 8.238281 -15.789062 7.765625 -14.707031 7.703125 -13.4375 Z M 7.703125 -13.4375 "/></g></g></g><g fill="#00235c" fill-opacity="1"><g transform="translate(175.602291, 385.18125)"><g><path d="M 28.90625 -19.375 L 22.53125 -19.375 C 22.28125 -21.019531 21.578125 -22.3125 20.421875 -23.25 C 19.265625 -24.1875 17.828125 -24.65625 16.109375 -24.65625 C 13.796875 -24.65625 11.941406 -23.804688 10.546875 -22.109375 C 9.148438 -20.410156 8.453125 -18.007812 8.453125 -14.90625 C 8.453125 -11.726562 9.15625 -9.3125 10.5625 -7.65625 C 11.96875 -6 13.800781 -5.171875 16.0625 -5.171875 C 17.738281 -5.171875 19.160156 -5.609375 20.328125 -6.484375 C 21.492188 -7.359375 22.226562 -8.59375 22.53125 -10.1875 L 28.90625 -10.15625 C 28.675781 -8.332031 28.019531 -6.613281 26.9375 -5 C 25.863281 -3.394531 24.398438 -2.09375 22.546875 -1.09375 C 20.703125 -0.09375 18.503906 0.40625 15.953125 0.40625 C 13.296875 0.40625 10.921875 -0.191406 8.828125 -1.390625 C 6.734375 -2.597656 5.082031 -4.34375 3.875 -6.625 C 2.664062 -8.90625 2.0625 -11.664062 2.0625 -14.90625 C 2.0625 -18.15625 2.671875 -20.921875 3.890625 -23.203125 C 5.117188 -25.484375 6.78125 -27.222656 8.875 -28.421875 C 10.976562 -29.617188 13.335938 -30.21875 15.953125 -30.21875 C 18.253906 -30.21875 20.328125 -29.789062 22.171875 -28.9375 C 24.023438 -28.09375 25.539062 -26.863281 26.71875 -25.25 C 27.90625 -23.632812 28.632812 -21.675781 28.90625 -19.375 Z M 28.90625 -19.375 "/></g></g></g><g fill="#00235c" fill-opacity="1"><g transform="translate(206.433771, 385.18125)"><g><path d="M 8.671875 -12.921875 L 8.671875 0 L 2.46875 0 L 2.46875 -29.8125 L 8.5 -29.8125 L 8.5 -18.421875 L 8.765625 -18.421875 C 9.273438 -19.734375 10.09375 -20.765625 11.21875 -21.515625 C 12.34375 -22.273438 13.753906 -22.65625 15.453125 -22.65625 C 17.773438 -22.65625 19.644531 -21.90625 21.0625 -20.40625 C 22.476562 -18.914062 23.179688 -16.859375 23.171875 -14.234375 L 23.171875 0 L 16.984375 0 L 16.984375 -13.140625 C 16.984375 -14.515625 16.628906 -15.582031 15.921875 -16.34375 C 15.222656 -17.113281 14.242188 -17.5 12.984375 -17.5 C 11.722656 -17.5 10.691406 -17.097656 9.890625 -16.296875 C 9.085938 -15.492188 8.679688 -14.367188 8.671875 -12.921875 Z M 8.671875 -12.921875 "/></g></g></g><g fill="#00235c" fill-opacity="1"><g transform="translate(232.024772, 385.18125)"><g><path d="M 8.859375 0.421875 C 6.722656 0.421875 4.945312 -0.132812 3.53125 -1.25 C 2.125 -2.363281 1.421875 -4.03125 1.421875 -6.25 C 1.421875 -7.914062 1.8125 -9.222656 2.59375 -10.171875 C 3.382812 -11.128906 4.414062 -11.828125 5.6875 -12.265625 C 6.96875 -12.703125 8.347656 -12.992188 9.828125 -13.140625 C 11.765625 -13.328125 13.148438 -13.523438 13.984375 -13.734375 C 14.828125 -13.953125 15.25 -14.421875 15.25 -15.140625 L 15.25 -15.234375 C 15.25 -16.148438 14.957031 -16.859375 14.375 -17.359375 C 13.800781 -17.867188 12.984375 -18.125 11.921875 -18.125 C 10.804688 -18.125 9.914062 -17.878906 9.25 -17.390625 C 8.59375 -16.910156 8.160156 -16.296875 7.953125 -15.546875 L 2.21875 -16.015625 C 2.644531 -18.054688 3.703125 -19.671875 5.390625 -20.859375 C 7.085938 -22.054688 9.273438 -22.65625 11.953125 -22.65625 C 13.609375 -22.65625 15.160156 -22.390625 16.609375 -21.859375 C 18.054688 -21.335938 19.222656 -20.519531 20.109375 -19.40625 C 21.003906 -18.300781 21.453125 -16.859375 21.453125 -15.078125 L 21.453125 0 L 15.5625 0 L 15.5625 -3.09375 L 15.390625 -3.09375 C 14.847656 -2.0625 14.035156 -1.21875 12.953125 -0.5625 C 11.867188 0.09375 10.503906 0.421875 8.859375 0.421875 Z M 10.625 -3.859375 C 11.988281 -3.859375 13.101562 -4.253906 13.96875 -5.046875 C 14.84375 -5.835938 15.28125 -6.820312 15.28125 -8 L 15.28125 -10.359375 C 15.039062 -10.203125 14.664062 -10.054688 14.15625 -9.921875 C 13.644531 -9.796875 13.097656 -9.6875 12.515625 -9.59375 C 11.941406 -9.507812 11.429688 -9.429688 10.984375 -9.359375 C 9.890625 -9.203125 9.007812 -8.894531 8.34375 -8.4375 C 7.6875 -7.988281 7.359375 -7.328125 7.359375 -6.453125 C 7.359375 -5.597656 7.664062 -4.953125 8.28125 -4.515625 C 8.894531 -4.078125 9.675781 -3.859375 10.625 -3.859375 Z M 10.625 -3.859375 "/></g></g></g><g fill="#00235c" fill-opacity="1"><g transform="translate(255.81072, 385.18125)"><g><path d="M 2.46875 0 L 2.46875 -22.359375 L 8.390625 -22.359375 L 8.390625 -18.421875 L 8.65625 -18.421875 C 9.113281 -19.734375 9.890625 -20.765625 10.984375 -21.515625 C 12.078125 -22.273438 13.375 -22.65625 14.875 -22.65625 C 16.414062 -22.65625 17.722656 -22.273438 18.796875 -21.515625 C 19.867188 -20.753906 20.585938 -19.722656 20.953125 -18.421875 L 21.1875 -18.421875 C 21.644531 -19.703125 22.472656 -20.726562 23.671875 -21.5 C 24.867188 -22.269531 26.285156 -22.65625 27.921875 -22.65625 C 30.015625 -22.65625 31.710938 -21.992188 33.015625 -20.671875 C 34.316406 -19.347656 34.96875 -17.472656 34.96875 -15.046875 L 34.96875 0 L 28.78125 0 L 28.78125 -13.8125 C 28.78125 -15.0625 28.445312 -15.992188 27.78125 -16.609375 C 27.125 -17.234375 26.300781 -17.546875 25.3125 -17.546875 C 24.1875 -17.546875 23.304688 -17.1875 22.671875 -16.46875 C 22.046875 -15.75 21.734375 -14.8125 21.734375 -13.65625 L 21.734375 0 L 15.71875 0 L 15.71875 -13.953125 C 15.71875 -15.046875 15.40625 -15.914062 14.78125 -16.5625 C 14.15625 -17.21875 13.332031 -17.546875 12.3125 -17.546875 C 11.289062 -17.546875 10.425781 -17.164062 9.71875 -16.40625 C 9.019531 -15.65625 8.671875 -14.660156 8.671875 -13.421875 L 8.671875 0 Z M 2.46875 0 "/></g></g></g><g fill="#00235c" fill-opacity="1"><g transform="translate(293.192797, 385.18125)"><g><path d="M 2.46875 8.390625 L 2.46875 -22.359375 L 8.59375 -22.359375 L 8.59375 -18.609375 L 8.859375 -18.609375 C 9.148438 -19.222656 9.550781 -19.835938 10.0625 -20.453125 C 10.570312 -21.078125 11.25 -21.597656 12.09375 -22.015625 C 12.9375 -22.441406 13.984375 -22.65625 15.234375 -22.65625 C 16.867188 -22.65625 18.367188 -22.226562 19.734375 -21.375 C 21.109375 -20.53125 22.207031 -19.253906 23.03125 -17.546875 C 23.863281 -15.847656 24.28125 -13.71875 24.28125 -11.15625 C 24.28125 -8.65625 23.878906 -6.546875 23.078125 -4.828125 C 22.273438 -3.117188 21.1875 -1.828125 19.8125 -0.953125 C 18.445312 -0.078125 16.914062 0.359375 15.21875 0.359375 C 14.007812 0.359375 12.984375 0.160156 12.140625 -0.234375 C 11.304688 -0.628906 10.625 -1.128906 10.09375 -1.734375 C 9.5625 -2.347656 9.148438 -2.960938 8.859375 -3.578125 L 8.671875 -3.578125 L 8.671875 8.390625 Z M 8.546875 -11.1875 C 8.546875 -9.195312 8.953125 -7.597656 9.765625 -6.390625 C 10.585938 -5.179688 11.75 -4.578125 13.25 -4.578125 C 14.769531 -4.578125 15.929688 -5.1875 16.734375 -6.40625 C 17.546875 -7.632812 17.953125 -9.226562 17.953125 -11.1875 C 17.953125 -13.125 17.550781 -14.695312 16.75 -15.90625 C 15.945312 -17.113281 14.78125 -17.71875 13.25 -17.71875 C 11.75 -17.71875 10.585938 -17.128906 9.765625 -15.953125 C 8.953125 -14.773438 8.546875 -13.1875 8.546875 -11.1875 Z M 8.546875 -11.1875 "/></g></g></g><g fill="#00235c" fill-opacity="1"><g transform="translate(319.118607, 385.18125)"><g><path d="M 2.46875 0 L 2.46875 -22.359375 L 8.671875 -22.359375 L 8.671875 0 Z M 5.96875 -25.25 C 5.050781 -25.25 4.265625 -25.554688 3.609375 -26.171875 C 2.953125 -26.785156 2.625 -27.523438 2.625 -28.390625 C 2.625 -29.253906 2.953125 -29.988281 3.609375 -30.59375 C 4.265625 -31.207031 5.050781 -31.515625 5.96875 -31.515625 C 6.894531 -31.515625 7.6875 -31.207031 8.34375 -30.59375 C 9 -29.988281 9.328125 -29.253906 9.328125 -28.390625 C 9.328125 -27.523438 9 -26.785156 8.34375 -26.171875 C 7.6875 -25.554688 6.894531 -25.25 5.96875 -25.25 Z M 5.96875 -25.25 "/></g></g></g><g fill="#00235c" fill-opacity="1"><g transform="translate(330.26918, 385.18125)"><g><path d="M 12.578125 0.4375 C 10.316406 0.4375 8.363281 -0.0390625 6.71875 -1 C 5.070312 -1.96875 3.800781 -3.316406 2.90625 -5.046875 C 2.019531 -6.785156 1.578125 -8.800781 1.578125 -11.09375 C 1.578125 -13.40625 2.019531 -15.425781 2.90625 -17.15625 C 3.800781 -18.882812 5.070312 -20.234375 6.71875 -21.203125 C 8.363281 -22.171875 10.316406 -22.65625 12.578125 -22.65625 C 14.835938 -22.65625 16.789062 -22.171875 18.4375 -21.203125 C 20.082031 -20.234375 21.351562 -18.882812 22.25 -17.15625 C 23.144531 -15.425781 23.59375 -13.40625 23.59375 -11.09375 C 23.59375 -8.800781 23.144531 -6.785156 22.25 -5.046875 C 21.351562 -3.316406 20.082031 -1.96875 18.4375 -1 C 16.789062 -0.0390625 14.835938 0.4375 12.578125 0.4375 Z M 12.609375 -4.375 C 14.140625 -4.375 15.300781 -5.015625 16.09375 -6.296875 C 16.882812 -7.578125 17.28125 -9.191406 17.28125 -11.140625 C 17.28125 -13.085938 16.882812 -14.703125 16.09375 -15.984375 C 15.300781 -17.273438 14.140625 -17.921875 12.609375 -17.921875 C 11.046875 -17.921875 9.863281 -17.273438 9.0625 -15.984375 C 8.269531 -14.703125 7.875 -13.085938 7.875 -11.140625 C 7.875 -9.191406 8.269531 -7.578125 9.0625 -6.296875 C 9.863281 -5.015625 11.046875 -4.375 12.609375 -4.375 Z M 12.609375 -4.375 "/></g></g></g><g fill="#00235c" fill-opacity="1"><g transform="translate(355.423475, 385.18125)"><g><path d="M 8.671875 -12.921875 L 8.671875 0 L 2.46875 0 L 2.46875 -22.359375 L 8.390625 -22.359375 L 8.390625 -18.421875 L 8.65625 -18.421875 C 9.15625 -19.722656 9.984375 -20.753906 11.140625 -21.515625 C 12.304688 -22.273438 13.71875 -22.65625 15.375 -22.65625 C 17.707031 -22.65625 19.578125 -21.90625 20.984375 -20.40625 C 22.390625 -18.90625 23.09375 -16.847656 23.09375 -14.234375 L 23.09375 0 L 16.890625 0 L 16.890625 -13.140625 C 16.898438 -14.503906 16.550781 -15.570312 15.84375 -16.34375 C 15.132812 -17.113281 14.160156 -17.5 12.921875 -17.5 C 11.660156 -17.5 10.640625 -17.097656 9.859375 -16.296875 C 9.078125 -15.492188 8.679688 -14.367188 8.671875 -12.921875 Z M 8.671875 -12.921875 "/></g></g></g><g fill="#00235c" fill-opacity="1"><g transform="translate(124.523157, 421.749898)"><g><path d="M 10.828125 -14.484375 C 12.710938 -14.484375 14.320312 -14.117188 15.65625 -13.390625 C 17 -12.671875 18.023438 -11.671875 18.734375 -10.390625 C 19.453125 -9.109375 19.804688 -7.625 19.796875 -5.9375 C 19.804688 -4.78125 19.671875 -3.75 19.390625 -2.84375 C 19.109375 -1.9375 18.65625 -1.21875 18.03125 -0.6875 C 17.414062 -0.15625 16.59375 0.132812 15.5625 0.1875 C 14.738281 0.25 14.144531 0.132812 13.78125 -0.15625 C 13.414062 -0.457031 13.191406 -0.847656 13.109375 -1.328125 L 13.03125 -1.328125 C 12.914062 -1.046875 12.691406 -0.789062 12.359375 -0.5625 C 12.023438 -0.332031 11.617188 -0.15625 11.140625 -0.03125 C 10.671875 0.09375 10.164062 0.140625 9.625 0.109375 C 8.882812 0.0664062 8.195312 -0.148438 7.5625 -0.546875 C 6.9375 -0.941406 6.429688 -1.515625 6.046875 -2.265625 C 5.660156 -3.023438 5.46875 -3.960938 5.46875 -5.078125 C 5.46875 -6.171875 5.664062 -7.078125 6.0625 -7.796875 C 6.457031 -8.523438 6.957031 -9.082031 7.5625 -9.46875 C 8.175781 -9.863281 8.796875 -10.109375 9.421875 -10.203125 C 9.960938 -10.273438 10.46875 -10.269531 10.9375 -10.1875 C 11.414062 -10.113281 11.820312 -9.984375 12.15625 -9.796875 C 12.488281 -9.617188 12.691406 -9.425781 12.765625 -9.21875 L 12.875 -9.21875 L 12.875 -10.015625 L 15.09375 -10.015625 L 15.09375 -3.09375 C 15.101562 -2.40625 15.367188 -2.0625 15.890625 -2.0625 C 16.378906 -2.0625 16.75 -2.382812 17 -3.03125 C 17.25 -3.6875 17.375 -4.707031 17.375 -6.09375 C 17.375 -7.21875 17.191406 -8.164062 16.828125 -8.9375 C 16.472656 -9.707031 15.984375 -10.332031 15.359375 -10.8125 C 14.742188 -11.300781 14.039062 -11.648438 13.25 -11.859375 C 12.457031 -12.078125 11.632812 -12.1875 10.78125 -12.1875 C 9.21875 -12.1875 7.910156 -11.875 6.859375 -11.25 C 5.816406 -10.632812 5.035156 -9.789062 4.515625 -8.71875 C 4.003906 -7.644531 3.742188 -6.429688 3.734375 -5.078125 C 3.742188 -2.828125 4.359375 -1.109375 5.578125 0.078125 C 6.804688 1.273438 8.578125 1.875 10.890625 1.875 C 11.710938 1.875 12.492188 1.789062 13.234375 1.625 C 13.984375 1.46875 14.546875 1.3125 14.921875 1.15625 L 15.625 3.203125 C 15.332031 3.367188 14.929688 3.523438 14.421875 3.671875 C 13.910156 3.828125 13.335938 3.953125 12.703125 4.046875 C 12.066406 4.140625 11.410156 4.1875 10.734375 4.1875 C 8.722656 4.1875 7.003906 3.820312 5.578125 3.09375 C 4.160156 2.375 3.078125 1.332031 2.328125 -0.03125 C 1.585938 -1.40625 1.210938 -3.054688 1.203125 -4.984375 C 1.210938 -6.890625 1.59375 -8.550781 2.34375 -9.96875 C 3.09375 -11.394531 4.179688 -12.503906 5.609375 -13.296875 C 7.046875 -14.085938 8.785156 -14.484375 10.828125 -14.484375 Z M 10.390625 -7.828125 C 9.609375 -7.828125 9 -7.582031 8.5625 -7.09375 C 8.132812 -6.613281 7.921875 -5.96875 7.921875 -5.15625 C 7.921875 -4.65625 8 -4.179688 8.15625 -3.734375 C 8.3125 -3.285156 8.570312 -2.921875 8.9375 -2.640625 C 9.300781 -2.367188 9.789062 -2.234375 10.40625 -2.234375 C 11.28125 -2.234375 11.890625 -2.484375 12.234375 -2.984375 C 12.578125 -3.484375 12.742188 -4.210938 12.734375 -5.171875 C 12.734375 -6.023438 12.566406 -6.679688 12.234375 -7.140625 C 11.898438 -7.597656 11.285156 -7.828125 10.390625 -7.828125 Z M 10.390625 -7.828125 "/></g></g></g><g fill="#00235c" fill-opacity="1"><g transform="translate(145.125759, 421.749898)"><g><path d="M 14.09375 -9.453125 L 10.984375 -9.453125 C 10.867188 -10.253906 10.53125 -10.882812 9.96875 -11.34375 C 9.40625 -11.800781 8.703125 -12.03125 7.859375 -12.03125 C 6.734375 -12.03125 5.828125 -11.613281 5.140625 -10.78125 C 4.460938 -9.957031 4.125 -8.785156 4.125 -7.265625 C 4.125 -5.710938 4.460938 -4.53125 5.140625 -3.71875 C 5.828125 -2.914062 6.722656 -2.515625 7.828125 -2.515625 C 8.648438 -2.515625 9.34375 -2.726562 9.90625 -3.15625 C 10.476562 -3.59375 10.835938 -4.195312 10.984375 -4.96875 L 14.09375 -4.953125 C 13.988281 -4.066406 13.671875 -3.226562 13.140625 -2.4375 C 12.617188 -1.65625 11.90625 -1.019531 11 -0.53125 C 10.101562 -0.0390625 9.03125 0.203125 7.78125 0.203125 C 6.488281 0.203125 5.332031 -0.0859375 4.3125 -0.671875 C 3.289062 -1.265625 2.484375 -2.117188 1.890625 -3.234375 C 1.304688 -4.347656 1.015625 -5.691406 1.015625 -7.265625 C 1.015625 -8.859375 1.3125 -10.207031 1.90625 -11.3125 C 2.5 -12.425781 3.304688 -13.273438 4.328125 -13.859375 C 5.347656 -14.453125 6.5 -14.75 7.78125 -14.75 C 8.90625 -14.75 9.914062 -14.539062 10.8125 -14.125 C 11.71875 -13.707031 12.457031 -13.101562 13.03125 -12.3125 C 13.613281 -11.53125 13.96875 -10.578125 14.09375 -9.453125 Z M 14.09375 -9.453125 "/></g></g></g><g fill="#00235c" fill-opacity="1"><g transform="translate(160.16239, 421.749898)"><g><path d="M 6.140625 0.21875 C 5.035156 0.21875 4.082031 -0.015625 3.28125 -0.484375 C 2.476562 -0.960938 1.859375 -1.625 1.421875 -2.46875 C 0.984375 -3.3125 0.765625 -4.289062 0.765625 -5.40625 C 0.765625 -6.539062 0.984375 -7.53125 1.421875 -8.375 C 1.859375 -9.21875 2.476562 -9.875 3.28125 -10.34375 C 4.082031 -10.8125 5.035156 -11.046875 6.140625 -11.046875 C 7.242188 -11.046875 8.195312 -10.8125 9 -10.34375 C 9.800781 -9.875 10.414062 -9.21875 10.84375 -8.375 C 11.28125 -7.53125 11.5 -6.539062 11.5 -5.40625 C 11.5 -4.289062 11.28125 -3.3125 10.84375 -2.46875 C 10.414062 -1.625 9.800781 -0.960938 9 -0.484375 C 8.195312 -0.015625 7.242188 0.21875 6.140625 0.21875 Z M 6.15625 -2.125 C 6.894531 -2.125 7.457031 -2.4375 7.84375 -3.0625 C 8.238281 -3.6875 8.4375 -4.476562 8.4375 -5.4375 C 8.4375 -6.382812 8.238281 -7.171875 7.84375 -7.796875 C 7.457031 -8.429688 6.894531 -8.75 6.15625 -8.75 C 5.382812 -8.75 4.804688 -8.429688 4.421875 -7.796875 C 4.035156 -7.171875 3.84375 -6.382812 3.84375 -5.4375 C 3.84375 -4.476562 4.035156 -3.6875 4.421875 -3.0625 C 4.804688 -2.4375 5.382812 -2.125 6.15625 -2.125 Z M 6.15625 -2.125 "/></g></g></g><g fill="#00235c" fill-opacity="1"><g transform="translate(172.430238, 421.749898)"><g><path d="M 5.234375 0.171875 C 4.398438 0.171875 3.648438 -0.0390625 2.984375 -0.46875 C 2.316406 -0.894531 1.785156 -1.523438 1.390625 -2.359375 C 0.992188 -3.191406 0.796875 -4.21875 0.796875 -5.4375 C 0.796875 -6.6875 1 -7.726562 1.40625 -8.5625 C 1.8125 -9.394531 2.347656 -10.015625 3.015625 -10.421875 C 3.691406 -10.835938 4.425781 -11.046875 5.21875 -11.046875 C 5.832031 -11.046875 6.34375 -10.941406 6.75 -10.734375 C 7.15625 -10.535156 7.484375 -10.285156 7.734375 -9.984375 C 7.992188 -9.679688 8.191406 -9.378906 8.328125 -9.078125 L 8.421875 -9.078125 L 8.421875 -14.546875 L 11.4375 -14.546875 L 11.4375 0 L 8.453125 0 L 8.453125 -1.75 L 8.328125 -1.75 C 8.191406 -1.445312 7.992188 -1.144531 7.734375 -0.84375 C 7.472656 -0.550781 7.132812 -0.304688 6.71875 -0.109375 C 6.3125 0.078125 5.816406 0.171875 5.234375 0.171875 Z M 6.1875 -2.234375 C 6.914062 -2.234375 7.476562 -2.523438 7.875 -3.109375 C 8.28125 -3.703125 8.484375 -4.484375 8.484375 -5.453125 C 8.484375 -6.429688 8.28125 -7.207031 7.875 -7.78125 C 7.476562 -8.351562 6.914062 -8.640625 6.1875 -8.640625 C 5.4375 -8.640625 4.863281 -8.34375 4.46875 -7.75 C 4.082031 -7.164062 3.890625 -6.398438 3.890625 -5.453125 C 3.890625 -4.503906 4.085938 -3.726562 4.484375 -3.125 C 4.878906 -2.53125 5.445312 -2.234375 6.1875 -2.234375 Z M 6.1875 -2.234375 "/></g></g></g><g fill="#00235c" fill-opacity="1"><g transform="translate(185.131154, 421.749898)"><g><path d="M 6.171875 0.21875 C 5.054688 0.21875 4.09375 -0.0078125 3.28125 -0.46875 C 2.476562 -0.925781 1.859375 -1.570312 1.421875 -2.40625 C 0.984375 -3.25 0.765625 -4.25 0.765625 -5.40625 C 0.765625 -6.53125 0.984375 -7.515625 1.421875 -8.359375 C 1.859375 -9.203125 2.472656 -9.859375 3.265625 -10.328125 C 4.054688 -10.804688 4.988281 -11.046875 6.0625 -11.046875 C 7.019531 -11.046875 7.882812 -10.84375 8.65625 -10.4375 C 9.4375 -10.03125 10.050781 -9.414062 10.5 -8.59375 C 10.957031 -7.769531 11.1875 -6.742188 11.1875 -5.515625 L 11.1875 -4.6875 L 3.75 -4.6875 L 3.75 -4.671875 C 3.75 -3.859375 3.972656 -3.21875 4.421875 -2.75 C 4.867188 -2.28125 5.472656 -2.046875 6.234375 -2.046875 C 6.734375 -2.046875 7.164062 -2.148438 7.53125 -2.359375 C 7.90625 -2.578125 8.171875 -2.894531 8.328125 -3.3125 L 11.125 -3.125 C 10.90625 -2.113281 10.363281 -1.300781 9.5 -0.6875 C 8.632812 -0.0820312 7.523438 0.21875 6.171875 0.21875 Z M 3.75 -6.5625 L 8.34375 -6.5625 C 8.332031 -7.207031 8.117188 -7.738281 7.703125 -8.15625 C 7.296875 -8.582031 6.765625 -8.796875 6.109375 -8.796875 C 5.429688 -8.796875 4.878906 -8.578125 4.453125 -8.140625 C 4.023438 -7.703125 3.789062 -7.175781 3.75 -6.5625 Z M 3.75 -6.5625 "/></g></g></g><g fill="#00235c" fill-opacity="1"><g transform="translate(197.079528, 421.749898)"><g><path d="M 14.09375 -9.453125 L 10.984375 -9.453125 C 10.867188 -10.253906 10.53125 -10.882812 9.96875 -11.34375 C 9.40625 -11.800781 8.703125 -12.03125 7.859375 -12.03125 C 6.734375 -12.03125 5.828125 -11.613281 5.140625 -10.78125 C 4.460938 -9.957031 4.125 -8.785156 4.125 -7.265625 C 4.125 -5.710938 4.460938 -4.53125 5.140625 -3.71875 C 5.828125 -2.914062 6.722656 -2.515625 7.828125 -2.515625 C 8.648438 -2.515625 9.34375 -2.726562 9.90625 -3.15625 C 10.476562 -3.59375 10.835938 -4.195312 10.984375 -4.96875 L 14.09375 -4.953125 C 13.988281 -4.066406 13.671875 -3.226562 13.140625 -2.4375 C 12.617188 -1.65625 11.90625 -1.019531 11 -0.53125 C 10.101562 -0.0390625 9.03125 0.203125 7.78125 0.203125 C 6.488281 0.203125 5.332031 -0.0859375 4.3125 -0.671875 C 3.289062 -1.265625 2.484375 -2.117188 1.890625 -3.234375 C 1.304688 -4.347656 1.015625 -5.691406 1.015625 -7.265625 C 1.015625 -8.859375 1.3125 -10.207031 1.90625 -11.3125 C 2.5 -12.425781 3.304688 -13.273438 4.328125 -13.859375 C 5.347656 -14.453125 6.5 -14.75 7.78125 -14.75 C 8.90625 -14.75 9.914062 -14.539062 10.8125 -14.125 C 11.71875 -13.707031 12.457031 -13.101562 13.03125 -12.3125 C 13.613281 -11.53125 13.96875 -10.578125 14.09375 -9.453125 Z M 14.09375 -9.453125 "/></g></g></g><g fill="#00235c" fill-opacity="1"><g transform="translate(212.11616, 421.749898)"><g><path d="M 4.234375 -6.3125 L 4.234375 0 L 1.203125 0 L 1.203125 -14.546875 L 4.140625 -14.546875 L 4.140625 -8.984375 L 4.28125 -8.984375 C 4.53125 -9.628906 4.925781 -10.132812 5.46875 -10.5 C 6.019531 -10.863281 6.707031 -11.046875 7.53125 -11.046875 C 8.664062 -11.046875 9.578125 -10.679688 10.265625 -9.953125 C 10.960938 -9.222656 11.3125 -8.222656 11.3125 -6.953125 L 11.3125 0 L 8.28125 0 L 8.28125 -6.40625 C 8.28125 -7.082031 8.109375 -7.601562 7.765625 -7.96875 C 7.429688 -8.34375 6.953125 -8.53125 6.328125 -8.53125 C 5.710938 -8.53125 5.207031 -8.332031 4.8125 -7.9375 C 4.425781 -7.550781 4.234375 -7.007812 4.234375 -6.3125 Z M 4.234375 -6.3125 "/></g></g></g><g fill="#00235c" fill-opacity="1"><g transform="translate(224.596994, 421.749898)"><g><path d="M 4.3125 0.203125 C 3.269531 0.203125 2.40625 -0.0664062 1.71875 -0.609375 C 1.039062 -1.148438 0.703125 -1.960938 0.703125 -3.046875 C 0.703125 -3.859375 0.890625 -4.492188 1.265625 -4.953125 C 1.648438 -5.421875 2.15625 -5.765625 2.78125 -5.984375 C 3.40625 -6.203125 4.078125 -6.34375 4.796875 -6.40625 C 5.742188 -6.5 6.421875 -6.597656 6.828125 -6.703125 C 7.234375 -6.804688 7.4375 -7.035156 7.4375 -7.390625 L 7.4375 -7.421875 C 7.4375 -7.878906 7.296875 -8.226562 7.015625 -8.46875 C 6.734375 -8.71875 6.332031 -8.84375 5.8125 -8.84375 C 5.269531 -8.84375 4.835938 -8.722656 4.515625 -8.484375 C 4.191406 -8.242188 3.976562 -7.941406 3.875 -7.578125 L 1.078125 -7.8125 C 1.285156 -8.800781 1.800781 -9.585938 2.625 -10.171875 C 3.457031 -10.753906 4.523438 -11.046875 5.828125 -11.046875 C 6.640625 -11.046875 7.394531 -10.914062 8.09375 -10.65625 C 8.800781 -10.40625 9.375 -10.007812 9.8125 -9.46875 C 10.25 -8.925781 10.46875 -8.222656 10.46875 -7.359375 L 10.46875 0 L 7.59375 0 L 7.59375 -1.515625 L 7.5 -1.515625 C 7.238281 -1.003906 6.84375 -0.585938 6.3125 -0.265625 C 5.789062 0.046875 5.125 0.203125 4.3125 0.203125 Z M 5.1875 -1.875 C 5.84375 -1.875 6.382812 -2.066406 6.8125 -2.453125 C 7.238281 -2.847656 7.453125 -3.332031 7.453125 -3.90625 L 7.453125 -5.0625 C 7.335938 -4.976562 7.15625 -4.90625 6.90625 -4.84375 C 6.65625 -4.78125 6.390625 -4.722656 6.109375 -4.671875 C 5.828125 -4.628906 5.578125 -4.59375 5.359375 -4.5625 C 4.828125 -4.488281 4.398438 -4.335938 4.078125 -4.109375 C 3.753906 -3.890625 3.59375 -3.566406 3.59375 -3.140625 C 3.59375 -2.722656 3.738281 -2.40625 4.03125 -2.1875 C 4.332031 -1.976562 4.71875 -1.875 5.1875 -1.875 Z M 5.1875 -1.875 "/></g></g></g><g fill="#00235c" fill-opacity="1"><g transform="translate(236.197491, 421.749898)"><g><path d="M 1.203125 0 L 1.203125 -10.90625 L 4.09375 -10.90625 L 4.09375 -8.984375 L 4.21875 -8.984375 C 4.445312 -9.628906 4.828125 -10.132812 5.359375 -10.5 C 5.890625 -10.863281 6.523438 -11.046875 7.265625 -11.046875 C 8.003906 -11.046875 8.632812 -10.859375 9.15625 -10.484375 C 9.6875 -10.117188 10.039062 -9.617188 10.21875 -8.984375 L 10.328125 -8.984375 C 10.554688 -9.609375 10.960938 -10.109375 11.546875 -10.484375 C 12.128906 -10.859375 12.820312 -11.046875 13.625 -11.046875 C 14.644531 -11.046875 15.472656 -10.722656 16.109375 -10.078125 C 16.742188 -9.429688 17.0625 -8.519531 17.0625 -7.34375 L 17.0625 0 L 14.046875 0 L 14.046875 -6.734375 C 14.046875 -7.347656 13.882812 -7.804688 13.5625 -8.109375 C 13.238281 -8.410156 12.832031 -8.5625 12.34375 -8.5625 C 11.800781 -8.5625 11.375 -8.382812 11.0625 -8.03125 C 10.757812 -7.675781 10.609375 -7.21875 10.609375 -6.65625 L 10.609375 0 L 7.671875 0 L 7.671875 -6.796875 C 7.671875 -7.335938 7.515625 -7.765625 7.203125 -8.078125 C 6.898438 -8.398438 6.503906 -8.5625 6.015625 -8.5625 C 5.503906 -8.5625 5.078125 -8.375 4.734375 -8 C 4.398438 -7.632812 4.234375 -7.148438 4.234375 -6.546875 L 4.234375 0 Z M 1.203125 0 "/></g></g></g><g fill="#00235c" fill-opacity="1"><g transform="translate(254.428877, 421.749898)"><g><path d="M 1.203125 4.09375 L 1.203125 -10.90625 L 4.1875 -10.90625 L 4.1875 -9.078125 L 4.328125 -9.078125 C 4.460938 -9.378906 4.65625 -9.679688 4.90625 -9.984375 C 5.15625 -10.285156 5.484375 -10.535156 5.890625 -10.734375 C 6.304688 -10.941406 6.816406 -11.046875 7.421875 -11.046875 C 8.222656 -11.046875 8.957031 -10.835938 9.625 -10.421875 C 10.289062 -10.015625 10.828125 -9.394531 11.234375 -8.5625 C 11.640625 -7.726562 11.84375 -6.6875 11.84375 -5.4375 C 11.84375 -4.21875 11.644531 -3.191406 11.25 -2.359375 C 10.863281 -1.523438 10.335938 -0.894531 9.671875 -0.46875 C 9.003906 -0.0390625 8.253906 0.171875 7.421875 0.171875 C 6.835938 0.171875 6.335938 0.078125 5.921875 -0.109375 C 5.515625 -0.304688 5.179688 -0.550781 4.921875 -0.84375 C 4.660156 -1.144531 4.460938 -1.445312 4.328125 -1.75 L 4.234375 -1.75 L 4.234375 4.09375 Z M 4.171875 -5.453125 C 4.171875 -4.484375 4.367188 -3.703125 4.765625 -3.109375 C 5.171875 -2.523438 5.738281 -2.234375 6.46875 -2.234375 C 7.207031 -2.234375 7.769531 -2.53125 8.15625 -3.125 C 8.550781 -3.726562 8.75 -4.503906 8.75 -5.453125 C 8.75 -6.398438 8.550781 -7.164062 8.15625 -7.75 C 7.769531 -8.34375 7.207031 -8.640625 6.46875 -8.640625 C 5.726562 -8.640625 5.160156 -8.351562 4.765625 -7.78125 C 4.367188 -7.207031 4.171875 -6.429688 4.171875 -5.453125 Z M 4.171875 -5.453125 "/></g></g></g><g fill="#00235c" fill-opacity="1"><g transform="translate(267.072996, 421.749898)"><g><path d="M 1.203125 0 L 1.203125 -10.90625 L 4.234375 -10.90625 L 4.234375 0 Z M 2.90625 -12.3125 C 2.46875 -12.3125 2.085938 -12.460938 1.765625 -12.765625 C 1.441406 -13.066406 1.28125 -13.425781 1.28125 -13.84375 C 1.28125 -14.269531 1.441406 -14.628906 1.765625 -14.921875 C 2.085938 -15.222656 2.46875 -15.375 2.90625 -15.375 C 3.363281 -15.375 3.75 -15.222656 4.0625 -14.921875 C 4.382812 -14.628906 4.546875 -14.269531 4.546875 -13.84375 C 4.546875 -13.425781 4.382812 -13.066406 4.0625 -12.765625 C 3.75 -12.460938 3.363281 -12.3125 2.90625 -12.3125 Z M 2.90625 -12.3125 "/></g></g></g><g fill="#00235c" fill-opacity="1"><g transform="translate(272.51117, 421.749898)"><g><path d="M 6.140625 0.21875 C 5.035156 0.21875 4.082031 -0.015625 3.28125 -0.484375 C 2.476562 -0.960938 1.859375 -1.625 1.421875 -2.46875 C 0.984375 -3.3125 0.765625 -4.289062 0.765625 -5.40625 C 0.765625 -6.539062 0.984375 -7.53125 1.421875 -8.375 C 1.859375 -9.21875 2.476562 -9.875 3.28125 -10.34375 C 4.082031 -10.8125 5.035156 -11.046875 6.140625 -11.046875 C 7.242188 -11.046875 8.195312 -10.8125 9 -10.34375 C 9.800781 -9.875 10.414062 -9.21875 10.84375 -8.375 C 11.28125 -7.53125 11.5 -6.539062 11.5 -5.40625 C 11.5 -4.289062 11.28125 -3.3125 10.84375 -2.46875 C 10.414062 -1.625 9.800781 -0.960938 9 -0.484375 C 8.195312 -0.015625 7.242188 0.21875 6.140625 0.21875 Z M 6.15625 -2.125 C 6.894531 -2.125 7.457031 -2.4375 7.84375 -3.0625 C 8.238281 -3.6875 8.4375 -4.476562 8.4375 -5.4375 C 8.4375 -6.382812 8.238281 -7.171875 7.84375 -7.796875 C 7.457031 -8.429688 6.894531 -8.75 6.15625 -8.75 C 5.382812 -8.75 4.804688 -8.429688 4.421875 -7.796875 C 4.035156 -7.171875 3.84375 -6.382812 3.84375 -5.4375 C 3.84375 -4.476562 4.035156 -3.6875 4.421875 -3.0625 C 4.804688 -2.4375 5.382812 -2.125 6.15625 -2.125 Z M 6.15625 -2.125 "/></g></g></g><g fill="#00235c" fill-opacity="1"><g transform="translate(284.779018, 421.749898)"><g><path d="M 4.234375 -6.3125 L 4.234375 0 L 1.203125 0 L 1.203125 -10.90625 L 4.09375 -10.90625 L 4.09375 -8.984375 L 4.21875 -8.984375 C 4.46875 -9.617188 4.875 -10.117188 5.4375 -10.484375 C 6 -10.859375 6.6875 -11.046875 7.5 -11.046875 C 8.632812 -11.046875 9.546875 -10.679688 10.234375 -9.953125 C 10.921875 -9.222656 11.265625 -8.222656 11.265625 -6.953125 L 11.265625 0 L 8.234375 0 L 8.234375 -6.40625 C 8.242188 -7.070312 8.070312 -7.59375 7.71875 -7.96875 C 7.375 -8.34375 6.898438 -8.53125 6.296875 -8.53125 C 5.691406 -8.53125 5.195312 -8.332031 4.8125 -7.9375 C 4.425781 -7.550781 4.234375 -7.007812 4.234375 -6.3125 Z M 4.234375 -6.3125 "/></g></g></g><g fill="#00235c" fill-opacity="1"><g transform="translate(297.210151, 421.749898)"><g><path d="M 0.703125 -12.015625 L 0.703125 -14.546875 L 12.65625 -14.546875 L 12.65625 -12.015625 L 8.203125 -12.015625 L 8.203125 0 L 5.15625 0 L 5.15625 -12.015625 Z M 0.703125 -12.015625 "/></g></g></g><g fill="#00235c" fill-opacity="1"><g transform="translate(310.57131, 421.749898)"><g><path d="M 1.265625 0 L 1.265625 -14.546875 L 4.34375 -14.546875 L 4.34375 -8.546875 L 10.578125 -8.546875 L 10.578125 -14.546875 L 13.65625 -14.546875 L 13.65625 0 L 10.578125 0 L 10.578125 -6.015625 L 4.34375 -6.015625 L 4.34375 0 Z M 1.265625 0 "/></g></g></g></svg>